<svg xmlns="http://www.w3.org/2000/svg" viewBox="0 0 481.74 546.76"><defs><style>.cls-1{fill:none;stroke:#000;stroke-miterlimit:10;stroke-width:10px;}</style></defs><g id="Calque_2" data-name="Calque 2"><g id="Calque_1-2" data-name="Calque 1"><path class="cls-1" d="M453.49,526.05c13.56-5.38,20.95-23,21.34-37.61,4-151.4.43-187,.43-187s-19.06-158-109.87-161c-32.45-1-37.88.93-69.93,6.05-6.15,1-13.35,1.11-19.12-1.21-4.2-1.68-12.7-9.88-15.4-13.51-11.85-15.92-13.16-39.56-28.16-52.55l0,0a8.59,8.59,0,0,1-1.9-11l1.44-2.39a47.58,47.58,0,0,0,6.1-33.85c-3.06-15.4-11.57-18.84-18.14-19A20.35,20.35,0,0,0,208.92,16c-4,2.48-7.35,4.91-10.74,7.2-26,17.52-28.55-9.12-28.55-9.12-2.58-8.73-8.07-9.72-12.49-8.86a14.86,14.86,0,0,0-9,5.9c-3.72,5.08-8.19,12.83-8.9,21-12.13,0-33.91,14.44-44,21.23-54,36.46-63.71,68.57-63.71,68.57,1.3,11.25,14.71,22.46,23.09,30.09,10.73,9.78,24.72,15.21,38.81,18.7s26.62,1.23,38.86-6.57c-.59,9.49-11.51,15.72-12.91,24.58s3.58,20,5.19,28.83c0,.24-4.17-2.19-4.17-1.95a49.57,49.57,0,0,1-18-14.18c-2-2.55-3.61-5.46-5.9-7.78-6.21-6.27-16.52-6.8-24.74-3.6s-14.85,9.43-21.19,15.57c-1.33,1.28-2.73,2.73-2.88,4.56-.07.83-.45,3-.65,5.15a3.64,3.64,0,0,0,4,3.95c4.06-.41,9.38-.66,14.16-1.43a3.73,3.73,0,0,1,2.64.57c8.49,5.55,17.83,15,30.68,14.18,6.92-.43,15.74,14.68,19.39,20.57,2.57,4.16-1.81,6-4,8.12-1.24,1.22-2.68,1.5-5.54.59-3.35-1.06-7.14-3.64-9.89-5.61L54.53,224.83C47.4,202,3.2,220.74,5.06,229.74c1.42,6.89,8.08,6.6,12.82,8.86l31.44,15c6.23,3,18.59,11.12,21.53,16.09L92.66,291c15.7,17,28.28,29.33,48.52,40.51,5.84,3.22,14.94,8.91,21.57,8.2a13,13,0,0,0,9.57-6.64,5.2,5.2,0,0,1,7.82-1.41c8.79,7.28,21,11.84,23.14,22.76.94,4.73-.39,9.58-1.47,14.29-12.47,54.76,13.23,116.09,61,145.6C262.82,514.34,349.55,567.27,453.49,526.05Z"/></g></g></svg>