<svg xmlns="http://www.w3.org/2000/svg" viewBox="0 0 502.29 549.04"><defs><style>.cls-1{fill:none;stroke:#000;stroke-miterlimit:10;stroke-width:10px;}</style></defs><g id="Calque_2" data-name="Calque 2"><g id="bongo"><path class="cls-1" d="M130.12,135.36s29.36,36.47,55.28,22.11c28.58-15.84,179.4-47.75,240.83-34.35a52.71,52.71,0,0,1,22.54,11.11h0a159.11,159.11,0,0,1,45.09,147c-4.18,19.71-16.67,37.4-27.42,62.4L476,370.41a179,179,0,0,1,10.41,62.44l-1.17,91.89a15.37,15.37,0,0,1-13.33,15l-13,1.73s22.11-68.66,0-121.61c0,0-.37,70.76-8.44,104.64a22.11,22.11,0,0,1-21.52,17H417.57s28.51-80.88-1.75-150.12-37.24-60.76-37.24-60.76-14,32.25-117,13.05L277.1,512.23a20.8,20.8,0,0,1-5.75,16.34c-7.12,7.4-17.13,15.47-14.38-1,1.16-7,3.49-101.25-23.28-111.72l-11.54,117s-12.37,15.39-22,10.19a8.77,8.77,0,0,1-3.57-11.5c5.86-12.36,19-55.75,2.2-178.49,0,0-37.24-29.1-38.4-63.43,0,0-75.86-60.8-69.87-80.16a.07.07,0,0,0-.09-.09c-3,.9-55.33,16.19-61.54-5.28-6.4-22.11,23.85-66.33,23.85-66.33S3.86,126.63,5,97s57,8.72,57,8.72S60.88,60.3,145.25,26c0,0-82,58.77-62.84,78L100.18,86.5a283.09,283.09,0,0,0,21.19-23.28c6.53-8,16.77-19.5,28.54-28.52l17.41-13.36S142.54,60,128.38,81.25c-8.62,12.9-22.7,27.93-22.7,27.93s30.95-40.06,42.59-16.79S130.12,135.36,130.12,135.36Z"/></g></g></svg>