<svg xmlns="http://www.w3.org/2000/svg" viewBox="0 0 540.29 562.98"><defs><style>.cls-1{fill:none;stroke:#000;stroke-linecap:square;stroke-linejoin:round;stroke-width:10px;}</style></defs><g id="Calque_2" data-name="Calque 2"><g id="cacatoes"><path class="cls-1" d="M44.29,171.74s-17.91-31.42-4.22-49.8a45.58,45.58,0,0,0,8.37-20.07s9.92-50.49-11.51-72.52C32.34,24.63,11.52,22.44,5,21.6c0,0,29-13.31,46.74,2.76C55.26,27.56,62.17,38.27,66.13,46,69.43,52.5,72.74,59,74.8,66a59.29,59.29,0,0,1,2.34,20.3l5-22.85a40.49,40.49,0,0,0,1-10.06c-.31-10-10.53-22.72-10.79-23.17-2.07-3.61-7.16-8.62-10.14-11.53,9.93-1.69,13.45-.48,20.47,5.95,0,0-3.6-29.6,6.49-16.07,5.62,7.54,19.28,61.62,19.28,61.62.09.32,2.24,12,2.18,12,.11,0,13.25-50.11,3.66-63.68,0,0,13.68.28,12.5,18.71,0,0,22.94-28.33,12.43,2.2-7.52,19-15.18,39.19-12.2,59.44,2.61-3.92,4.81-7.23,6.8-10.57,6.1-10.26,12-21.18,10.78-33a78,78,0,0,1,5.61,7.32c1,1.65,3.11,11.17,3.11,11.17.18-.28,8.61-8.5,8.92-8.76,2.3-2,3.44-2.57,5.3-1.51a1,1,0,0,1,.48.42h0a1.08,1.08,0,0,1,1,1.52c-7.5,16.26-21.9,29.2-26.52,46.52l13.19-16c3.56-4.32,7.36-8.42,11.31-12.37,1.71-1.71,4-4.36,4.91-5-.16,7-4,22.54-5.69,29.39a186.73,186.73,0,0,0,16.53-10.06c-.28,5-4.48,8.77-7.94,12.42-5.68,6-10,13.12-14.28,20.18A24.71,24.71,0,0,1,172.1,123l-.1.54a30.64,30.64,0,0,1-10.44,17.68c-4.26,3.6-8.15,8-10.14,12.23,1.45-.61,4.48.38,5.92-.24L165,164.53c7,10.33,12,17.14,21.12,26.48a191.59,191.59,0,0,0,22.14,19.4l170.37,128s83.66,65.09,129.92,167.22a57,57,0,0,0,13.49,18.9,58.53,58.53,0,0,1,11.91,15,10.39,10.39,0,0,1-5,14.67l-1.33.53a49,49,0,0,1-45.07-5.41L372.9,475.3a236.4,236.4,0,0,1-28.68-23.07l-11.58,16.29c5.18,1.78,17.16,2,24,7a36.56,36.56,0,0,1,13.42,19.78l-.84.58a136.25,136.25,0,0,0-27.17-14.4,35.26,35.26,0,0,0-3.38-1.13,24.46,24.46,0,0,0-26.81,9.86,174.25,174.25,0,0,0-10.24,17.9l-9.42,15.32c1.21-13.63,2.13-27.35,2.11-27.35s-.16-.31-.16,0c0,.14-17.14,7.52-17,7.54.47-.15,5.46-8.31,7.45-11.79,2.48-4.35,2.84-4.72,6.81-11.51l27.3-32.44-54.38-32.28a188.12,188.12,0,0,0-.45,30.21c.29,4.42.69,9.06-1.17,13.08a20,20,0,0,1-4.51,5.81l-.06.06a19.79,19.79,0,0,1-13.64,5.5c-8.68,0-17,.16-25.94.06a9.8,9.8,0,0,0-3.46.38,6.16,6.16,0,0,0-3.74,5.39,11,11,0,0,0,1.93,6.54c.81,1.29,1.84,2.78,1.08,4.22-.41.77-3.11,3.44-5.27,2.84a10.57,10.57,0,0,1-4.71-2.47s-7.73-9.53-5-16.27c1.87-4.67-5.15,6.4-5.94,11.38s-1.14,8.8,3,11.63c-5.7,1.8-12.2-2-14.58-7.43s-1.18-12.05,2-17.14c5.14-8.32,14.72-13,24.29-15s19.46-1.79,29.18-2.8l-16.66-60.05c-13.27-4.71-23.16-16.6-32.15-27.44L112.22,241.79c-5.21-2-13.5-2-17.29-6.1-2.91-3.16-2.35-8.9-6.17-10.83-4,3.15-6,4.69-10.91,5.89-5.48,1.33-11.17-.39-16.42-2.46C39.21,219.52,46.75,195,46.75,195a16.51,16.51,0,0,1,.3-2.94,29.5,29.5,0,0,0-2.81-20.42L43.9,171"/></g></g></svg>