<svg xmlns="http://www.w3.org/2000/svg" viewBox="0 0 661.55 550.17"><defs><style>.cls-1{fill:none;stroke:#000;stroke-miterlimit:10;stroke-width:10px;}</style></defs><g id="Calque_2" data-name="Calque 2"><g id="Calque_57" data-name="Calque 57"><path class="cls-1" d="M565.88,529.75c-8.06-2.41-27.13-19-35.12-120.07-.28-3.54-.64-7.08-1.06-10.61-1.52-12.65-4.5-50.51,10.31-74.72a166.41,166.41,0,0,0,18.48-43l11.08-40.66s18.4-8.71,36.95-54.4a10.76,10.76,0,0,1,9.1-6.8c7.46-.5,21.17-12.56,34.21-82.7a16.91,16.91,0,0,0-1.89-11.73c-1.09-1.86-1.56-4.83.4-9.49a5.12,5.12,0,0,1,2.74-2.8c1.5-.6,3.65-3.78,3.27-17.36a69.94,69.94,0,0,1,1-13.78c1.51-8.66,2.85-24-4.2-33-5.89-7.52-15.54-2-22.64,4a62.2,62.2,0,0,0-12,13.63c-4.57,7-13.88,20.29-22.64,27A10.86,10.86,0,0,1,578.06,50c-9.19-15.49-33.57-51.86-51.25-35-22.19,21.13-6,65.87-6,65.87s16.77,29.91-6.4,53.74a53.85,53.85,0,0,1-38.81,16.06c-21.17,0-62.17-.74-85.81-5.06-13-2.38-63.09-5.38-100.05-3.44a137.5,137.5,0,0,0-90.83,40.47c-10.08,10.23-18.14,21.69-20.08,33.29-4.35,26.12-57.94,76.93-74.39,91.58a80.19,80.19,0,0,1-20.33,13.21C53,334.78-18.28,363.26,12.59,432.47c0,0,8.38,14,110.37-55.88,0,0,48-35.4,56.81-66.6,0,0-18.79,62.06-70.77,85a14.29,14.29,0,0,0-8.65,12.94c0,3.88.86,8.9,3.52,15.24l3.72,78.7h0a33,33,0,0,0,29.21,26,79.39,79.39,0,0,0,19-.26c11.12-1.81,12.28-17.36,1.56-20.84L136.46,500s-16.3-66.6,22.36-86.62l44.83-32.53a15.11,15.11,0,0,1,4.91-2.38c8.08-2.19,37-15.13,71.34-90.83L265,323s13.81,46.45-21.25,105.63a20.2,20.2,0,0,0-.18,20.37l35.66,61.87a28.3,28.3,0,0,0,24.71,14.36c6.31-.08,12.06-2.44,13.31-10.27a18,18,0,0,0-6.73-16.78c-8.64-6.88-24.35-22.13-27.36-43.85-2.92-21.05,5.21-34,10.42-39.93A62.6,62.6,0,0,0,302.11,402c11.05-21.14,38.42-75,36.93-86.93l66.13,5.59s-8.38,13.51.93,30.74,8.39,124.81,8.39,124.81-3.73,17.69,2.33,23.75-5.59,45.17,35.39,45.17c9.55,0,15.54-.51,19.3-1.15a4.4,4.4,0,0,0,2.7-7.09l-9.16-11.46a66.43,66.43,0,0,1-14.48-37.89l-4.42-80.26s3.26-73.11,10.25-75.91,17.7-20,25.15-19.09c3.74.47,1.61,6.69-1.44,12.77a37.51,37.51,0,0,0-2.65,27.06L501.25,436a35.14,35.14,0,0,1,1.33,8.88c.25,11.91,1.27,43.75,5.05,46.77,3.27,2.62,10.43,15.33,14.42,22.68a60.15,60.15,0,0,0,7,10.17l6.66,7.86a23.91,23.91,0,0,0,18.2,8.6c4.93,0,10.13-1.59,13.64-6.87A2.86,2.86,0,0,0,565.88,529.75Z"/></g></g></svg>