<svg xmlns="http://www.w3.org/2000/svg" viewBox="0 0 345.15 555.73"><defs><style>.cls-1,.cls-2{fill:none;}.cls-2{stroke:#000;stroke-linecap:square;stroke-linejoin:round;stroke-width:10px;}</style></defs><g id="Calque_2" data-name="Calque 2"><g id="elaphode"><path class="cls-1" d="M128.63,182.8c.33-1.68.67-3.36,1-5.07l-.5-.14Z"/><path class="cls-2" d="M147.17,23.15c.32-2.75.45-4.37.45-4.37l-22,6.3c-13.18,3.5-24.07,7.85-26.88,13,0,0-28.94-26.18-55.12-15.16C43.58,22.91,28.42,5,22.91,5s0,38.58,0,38.58S-3.27,107,10.51,135.91c0,0,7.65,5.06.3,22.51C4,174.6.09,227.59,17.1,268.66a109.14,109.14,0,0,1,6.83,24.58l11.48,72.32a263.12,263.12,0,0,1,1.22,74.09C33.42,465.23,29,496.9,25.39,511.87a11.25,11.25,0,0,0,10.72,14c6.23,0,13-3.92,17-18.35,3.86-14.19,4.68-30.31,4.42-43.74a269.81,269.81,0,0,1,4.42-53c1.85-10.26,2.64-22.21-.26-32.51l2.75-82.37s15.32-.62,18.68,36.74c2.26,25-1.24,53.12-3.81,69a100.49,100.49,0,0,0,2.88,44.68c.11.38.23.76.34,1.14a76.1,76.1,0,0,1,3.27,22.69l-.53,77.75s19.29,8.27,29.7-3.67l-7.8-67.78a374.51,374.51,0,0,1-1.28-72.19h0a251.6,251.6,0,0,1,5.42-35.7L133.6,270a17.24,17.24,0,0,1,8.91-11.51l.35-.18a53.3,53.3,0,0,1,47.12-.17l10.89,5.26a114.8,114.8,0,0,1,55.23,57c11.16,25.36,20.64,58,12.1,84.31-11.63,35.85-19.17,76.47-22.62,97.42-1.85,11.26,4.76,22.42,15.7,25.66,7.06,2.09,14.34.56,17.94-11.46,8.27-27.56-13.78-19.29,15.16-107.49,20.35-62,17.53-87.91,14.07-97.83a38.67,38.67,0,0,1-2-15.62c1.18-16.1-2.81-38.23-14.85-55.24-14.47-20.42,64.76-71.08,45.47-140-10.32-36.84-54-55.84-90.38-71.09-38.61-16.19-71.46-14.19-86-10.9a52.54,52.54,0,0,0-13.54,5.06c-2,16.93-11.15,76.9-40.48,68.09"/></g></g></svg>