<svg xmlns="http://www.w3.org/2000/svg" viewBox="0 0 171.21 91.39"><g id="Calque_2" data-name="Calque 2"><g id="droite"><path d="M131.12,42.62c2-.9,3.29,0,2.87,2.06l-6.9,27.62a4.81,4.81,0,0,0,.91,4.55c2,2.21,6.92,3.87,19.4-1.32,9-3.75,14.83-11,18.51-18.05a46.49,46.49,0,0,0,2-38.9C163.06,6.69,152.69-4.73,130.26,2,87.81,14.77,99.55,57.64,99.55,57.64s4.61,11.29,14.27.49C120.86,50.25,127.12,44.45,131.12,42.62Z"/></g><g id="gauche"><path d="M36.48,58a2.63,2.63,0,0,0-4.67-.44L15.43,83S11,91.18,2.44,70.38c-3.67-8.93-2.69-18.14-.38-25.76A47.21,47.21,0,0,1,27.57,15.33C39.12,10.1,54.21,9.06,65.12,29.4,85.78,67.88,48,90.58,48,90.58s-11,4.93-10.25-9.51C38.33,70.55,38,62.06,36.48,58Z"/></g></g></svg>