<svg xmlns="http://www.w3.org/2000/svg" viewBox="0 0 169.76 78.2"><g id="Calque_2" data-name="Calque 2"><g id="droite"><path d="M157.8,38.6c-5.49,1.95-26.81,10.88-34.5,34,0,0-4.62,3.95-7.89-4.52-3-7.65-12.5-24.55-19.56-30.31a4.93,4.93,0,0,1-1.33-6.16c.76-1.35,2.15-2.22,4.72-1.26,6.16,2.31,15.21,16.55,15.21,16.55s3.27,3.66,5-5S127.61,12.3,133,9a2.88,2.88,0,0,1,1.34-.51c3.11.12,4.2,3.57,3.18,6.5l-8.6,24.63s-1.15,7.31,6.55,2.31c6.84-4.45,10.95-9.2,19.35-11a4.48,4.48,0,0,1,5.55,4.46c0,.15,0,.3-.05.45A3.72,3.72,0,0,1,157.8,38.6Z"/><path d="M169.76,31.22,162,35.68s.83-4.88-2.49-5.5C159.49,30.18,166,28.94,169.76,31.22Z"/><path d="M133.79,6.27S137.71.89,142,0l-2.62,8.58"/><path d="M96.88,28.42s-4.63-4.78-9-5.06l3.8,8.12"/></g><g id="gauche"><path d="M12,43.26c5.49,2,26.81,10.87,34.5,34,0,0,4.62,3.94,7.89-4.53,3-7.64,12.5-24.54,19.56-30.31a4.92,4.92,0,0,0,1.33-6.15c-.76-1.35-2.15-2.22-4.72-1.26-6.16,2.31-15.21,16.55-15.21,16.55s-3.27,3.66-5-5S42.16,17,36.8,13.65a2.83,2.83,0,0,0-1.34-.51c-3.11.11-4.2,3.56-3.18,6.5l8.6,24.63s1.15,7.31-6.55,2.31c-6.84-4.45-10.95-9.21-19.35-11A4.48,4.48,0,0,0,9.43,40c0,.15,0,.31.05.46A3.75,3.75,0,0,0,12,43.26Z"/><path d="M0,35.88l7.78,4.46s-.83-4.88,2.49-5.5C10.27,34.84,3.74,33.59,0,35.88Z"/><path d="M36,10.93s-3.92-5.38-8.2-6.27l2.62,8.58"/><path d="M72.88,33.08s4.63-4.78,9-5.07l-3.79,8.13"/></g></g></svg>