<svg xmlns="http://www.w3.org/2000/svg" viewBox="0 0 183.16 97.46"><g id="Calque_2" data-name="Calque 2"><g id="droite"><path d="M167.84,20.69s-8.21,25.78-34.49,32.79c-10.55,2.82-21.94-1.34-27.57-10.7a21.63,21.63,0,0,1-2.29-17.4s0-10.45,19.49-7.78a22.72,22.72,0,0,0,11.7-1.48c6.8-2.78,16-5.78,17.59-6.31C153.41,9.43,169.72,6.06,167.84,20.69Z"/><path d="M181.56,50.49s-1.95,3.61-4.59,2.64c-.64-.24,2.93,9.36,2.44,13.16C179.41,66.29,186.14,60.54,181.56,50.49Z"/><path d="M166.24,81.62a17,17,0,0,0,3.23-17.18s-2.54,4.29-5.07,2.73"/><path d="M149.35,93.69s8.81-2.25,4.13-18.43c0,0-3.42,5.26-6.24,2.53"/><path d="M113.89,94.56s-10.68-4.86-10.14-15.89c0,0,3.12,3.12,6.14.29"/><path d="M135.42,97.46a17.69,17.69,0,0,1-10.8-15.08s3,3.6,6.72.58"/><path d="M168.43,58.15a5.46,5.46,0,0,1-1,4.15c-1,1.18-2.62,2.22-5.5,1.61-5.77-1.22-7.65-9.68-7.65-9.68s-.12-10.25,7.51-7.39C167.41,49,168,55.32,168.43,58.15Z"/><path d="M181.29,43.87a5.38,5.38,0,0,1-1,4.15c-.94,1.18-2.61,2.21-5.5,1.61-5.77-1.22-7-8.64-7-8.64s-1.64-10.69,6-7.83C179.41,35.28,180.9,41,181.29,43.87Z"/><path d="M153.46,70.33A5.87,5.87,0,0,1,151,74.58c-1.46,1-3.73,1.6-6.95,0-6.46-3.14-5.75-11.6-5.75-11.6s1.12-11.69,10.54-7.21C155.42,58.93,153.81,67.1,153.46,70.33Z"/><path d="M122.3,77.45a5.77,5.77,0,0,0,3.56,3.11c1.63.45,3.85.3,6.21-2.13,4.72-4.85,1.29-12.33,1.29-12.33s-3.22-8-10.53-3.18C117.12,66.73,120.92,74.62,122.3,77.45Z"/><path d="M99.85,68.66a6.75,6.75,0,0,0,9.63,5.93l.19-.1c6.61-3.32,5.78-11.74,5.78-11.74s-1.33-12.11-9.67-6.37A13.93,13.93,0,0,0,99.85,68.66Z"/></g><g id="gauche"><path d="M15.31,11.48S23.53,37.26,49.8,44.27c10.56,2.81,21.94-1.34,27.58-10.7a21.67,21.67,0,0,0,2.29-17.4s0-10.45-19.49-7.79A22.75,22.75,0,0,1,48.47,6.91C41.68,4.13,32.49,1.13,30.88.6,29.74.22,13.43-3.15,15.31,11.48Z"/><path d="M1.6,41.28s1.95,3.61,4.58,2.63c.65-.24-2.92,9.36-2.44,13.17C3.74,57.08-3,51.32,1.6,41.28Z"/><path d="M16.92,72.41a17,17,0,0,1-3.23-17.19s2.53,4.29,5.07,2.73"/><path d="M33.8,84.47S25,82.23,29.68,66.05c0,0,3.41,5.26,6.24,2.53"/><path d="M69.26,85.35S79.94,80.48,79.4,69.46c0,0-3.12,3.12-6.14.29"/><path d="M47.74,88.24a17.67,17.67,0,0,0,10.8-15.08s-3,3.61-6.73.59"/><path d="M2.24,36.62a5.21,5.21,0,0,0,6.67,4.13c5.77-1.22,7-8.63,7-8.63s1.64-10.7-6-7.84S2.24,36.62,2.24,36.62Z"/><path d="M14.73,48.94a5.38,5.38,0,0,0,1,4.15c.94,1.18,2.61,2.21,5.5,1.6C27,53.48,28.91,45,28.91,45s.11-10.26-7.51-7.4C15.74,39.74,15.12,46.11,14.73,48.94Z"/><path d="M1.86,34.66a5.43,5.43,0,0,0,1,4.14C3.84,40,5.51,41,8.39,40.41c5.78-1.21,7-8.63,7-8.63S17,21.09,9.4,24C3.75,26.07,2.26,31.83,1.86,34.66Z"/><path d="M29.7,61.12a5.88,5.88,0,0,0,2.42,4.25c1.46,1,3.73,1.59,7,0,6.46-3.14,5.74-11.59,5.74-11.59s-1.11-11.69-10.53-7.21C27.73,49.71,29.35,57.89,29.7,61.12Z"/><path d="M60.86,68.24a5.78,5.78,0,0,1-3.56,3.1c-1.63.46-3.85.3-6.21-2.12-4.72-4.85-1.29-12.33-1.29-12.33S53,48.83,60.32,53.71C66,57.52,62.24,65.41,60.86,68.24Z"/><path d="M83.31,59.44a6.75,6.75,0,0,1-9.63,5.94l-.2-.1c-6.6-3.32-5.77-11.74-5.77-11.74S69,41.43,77.38,47.17A13.93,13.93,0,0,1,83.31,59.44Z"/></g></g></svg>