<svg xmlns="http://www.w3.org/2000/svg" viewBox="0 0 902.21 629.07"><defs><style>.cls-1{fill:none;stroke:#000;stroke-linecap:square;stroke-linejoin:round;stroke-width:10px;}</style></defs><g id="Calque_2" data-name="Calque 2"><g id="fossa"><path class="cls-1" d="M719,5.45,631.3,9.28A280.26,280.26,0,0,0,514.92,40.17c-23.33,12-53.4,29-91.32,52.86-91.14,57.34-127.7,68.34-134.53,69.18-12.68,1.58-115.43,19.62-118.27-6.49s-19.34-30.19-19.34-30.19-9.65-5.47-16.49,4.18-28.9-8.16-57.74,2.93c0,0-45.46-24.6-35.7,16.62,0,0-30.13,37.22-19.07,55.06,0,0-27.73,15.93-13.3,41.6,9.06,16.1,28,23.93,45.93,19.57,23.23-5.64,60.19-11.21,74.83,5.44,14.44,16.41,37.8,63.19,52.24,93.6a101.39,101.39,0,0,1,7.63,65c-3.79,17.4-10.18,35-20.73,38.33-9.16,2.9-18.8,3.4-26.94,3a42.94,42.94,0,0,0-40.18,22.4c-5.64,10.65-5,20,17.76,17.38,27.33-3.22,47.11-8.18,59.1-11.87a63.58,63.58,0,0,0,23.12-12.87c15.05-13.12,44.33-40,59.09-62.38a7.06,7.06,0,0,1,12,.23c7.27,12.28,17.51,34,13,53.35-5,21.16-12.08,61.51-15.53,81.59A13.82,13.82,0,0,1,257,570.14c-15.75.17-42.18,4.05-42.11,28.19.11,34.38,53.71,25.77,66.07,21.79,4.14-1.33,42.59-13,50.64-74.42,0,0,31.59-112.85,31.41-117-.13-3.11-3.38-32-5-46a11.2,11.2,0,0,1,5.91-11.17L542.46,277.5a37.37,37.37,0,0,1,31-1.76l67.89,26.44a7.85,7.85,0,0,1,1.15,14.08c-25.47,15.11-74.72,47.14-57.09,59.5,23.43,16.42,60.48-7.07,60.48-7.07s86.47-47.88,65.68-99.64l62,34.6v2.77a135,135,0,0,1-6.1,40c-4.23,13.79-5.91,26.41,18.69,26,31-.56,34.74-23.38,34.38-26.86-.07-.75-.09-2-.1-2.72l-.06-43.88A72.21,72.21,0,0,0,802,251.05c-23.48-26.41-61.33-83.29-62.33-176.39A12.5,12.5,0,0,1,752.7,62c25.2,1.08,79.68,6.29,94.41,31,19.36,32.5,20.78,48.06.21,64.63s-68.59,51.55-68.59,51.55l11.53,22s105.24-54,106.91-106.68c1.39-44.07-30.51-79.65-30.51-79.65S830.77.05,719,5.45Z"/></g></g></svg>