<svg xmlns="http://www.w3.org/2000/svg" viewBox="0 0 1024.67 542.76"><defs><style>.cls-1{fill:none;stroke:#000;stroke-linecap:square;stroke-linejoin:round;stroke-width:10px;}</style></defs><g id="Calque_2" data-name="Calque 2"><g id="guigna"><path class="cls-1" d="M138.85,301s33.69,28.38,97.94,52.08A40.38,40.38,0,0,1,263,394.26c-1.89,23.14-8.72,55.26-29.57,84.7,0,0-77.91-6.76-32.2,38.29s115.54-54.06,115.54-54.06l74.33-72.08s33.79,47.3,31.54,63.07c0,0-58.57,2.25-24.78,38.29s76.58-31.53,76.58-31.53V337.05s126.14-11.26,135.15-24.77L635.31,374a82.79,82.79,0,0,1-7.68,78h0s-63.07-6.76-36,42.8c0,0,83.35,18,90.1-42.8L702,395.62h0a105,105,0,0,1,40.55,82.9v7.2s-21.47-8.56-33.2,7.89-1.42,39.63,18.64,42.87c25,4,61.63.92,79.88-44,0,0,38.47-100.74,1.42-136.32a102.88,102.88,0,0,1-26-42.2c-6-18.38-12.55-38.69-13.71-44.47-2.25-11.26,29.28-90.1,29.28-90.1S904.69,506,976.77,497c60.06-7.51,41.92-66.64,34.2-86.14-2.48-6.28-4.86-12.6-7.05-19L929.07,173.54C898.48,84.3,819.76,19.82,726.09,8.63l-3.85-.44a621.7,621.7,0,0,0-76.85-3.08C544.94,6.78,446.5,32.87,357.62,79.71c-47,24.77-105,47.86-149,41.1,0,0-43.41-29.28-153.17,15.77,0,0-42.79-18-49.55,4.51s24.78,33.78,24.78,33.78-11.27,94,24.77,101.07C55.5,275.94,64.51,357.33,138.85,301Z"/></g></g></svg>