<svg xmlns="http://www.w3.org/2000/svg" viewBox="0 0 198.73 183.38"><defs><style>.cls-1{fill:none;stroke:#000;stroke-miterlimit:10;}</style></defs><g id="Calque_2" data-name="Calque 2"><g id="Calque_70" data-name="Calque 70"><path d="M197.45,89.53H179a25.79,25.79,0,0,0-2.5-5.15h15.4Z"/><path d="M191.87,84.38h-15.4a25.59,25.59,0,0,0-2.18-3,42.32,42.32,0,0,0-3.51-3.8l-42-37.85V26.18Z"/><polygon points="178.58 178.19 178.56 182.88 128.79 182.82 128.79 111.27 140.98 111.27 140.98 178.18 178.34 178.19 178.58 178.19"/><path d="M141,111.1v.17H128.79V84.38h0C136.14,91.55,141,100.84,141,111.1Z"/><path d="M128.79,84.37H101V75.19C113.43,75.24,123.63,79.34,128.79,84.37Z"/><polygon points="128.79 111.27 128.79 182.82 101 182.78 101 111.27 128.79 111.27"/><rect x="101" y="84.38" width="27.79" height="26.89"/><polygon points="128.79 26.18 128.79 39.72 101.52 15.14 101 15.58 101 0.79 101.14 0.67 128.79 26.18"/><polygon points="101 111.27 101 182.78 73.31 182.74 73.31 111.27 101 111.27"/><polygon points="101 84.38 101 111.27 73.31 111.27 73.31 84.4 73.32 84.39 73.33 84.38 101 84.38"/><path d="M101,75.19v9.19H73.33c6-5,15-9.19,27.46-9.19Z"/><polygon points="101 0.79 101 15.58 73.31 38.94 73.31 25.38 101 0.79"/><path d="M25.18,177.8,60,177.53l.16-66.2v-.06H73.31v71.47l-48.13-.06Z"/><path d="M73.31,84.4v26.87H60.15C60.17,100.81,65.27,91.1,73.31,84.4Z"/><path d="M73.31,25.38V38.94L32.67,73.23a21.37,21.37,0,0,0-7,11.15h-.54V68.12Z"/><path d="M25.18,84.38h.54a20.86,20.86,0,0,0-.54,3.16Z"/><polygon points="25.18 177.8 25.18 182.68 24.88 182.68 24.89 177.8 25.18 177.8"/><path d="M25.18,84.38v3.16a18.81,18.81,0,0,0-.1,2L1.3,89.32l5.56-4.94Z"/><polygon points="25.18 68.12 25.18 84.38 6.86 84.38 25.18 68.12"/><polyline class="cls-1" points="178.97 89.53 197.45 89.53 191.87 84.38 128.79 26.18 101.14 0.67 101 0.79 73.31 25.38 25.18 68.12 6.86 84.38 1.3 89.32 25.08 89.53"/><polyline class="cls-1" points="24.89 177.8 24.88 182.68 25.18 182.68 73.31 182.74 101 182.78 128.79 182.82 178.56 182.88 178.58 178.19 178.87 111.27 178.97 89.53"/><path class="cls-1" d="M128.79,84.37c-5.16-5-15.36-9.13-27.79-9.18h-.21c-12.51,0-21.46,4.2-27.46,9.19h0c-8,6.7-13.14,16.41-13.16,26.87v.06L60,177.53l-34.81.27"/><path class="cls-1" d="M178.34,178.19H141V111.1c0-10.26-4.84-19.55-12.18-26.72"/><polyline class="cls-1" points="25.17 89.53 25.08 89.53 25.03 111.27 24.89 177.8 25.18 177.8 61.95 177.99"/><path class="cls-1" d="M179,89.53a27,27,0,0,0-4.68-8.16,42.32,42.32,0,0,0-3.51-3.8l-42-37.85L101.52,15.14l-.52.44L73.31,38.94,32.67,73.23a21.37,21.37,0,0,0-7,11.15,20.86,20.86,0,0,0-.54,3.16,18.81,18.81,0,0,0-.1,2"/><line class="cls-1" x1="128.79" y1="84.37" x2="128.79" y2="84.38"/><line class="cls-1" x1="128.79" y1="84.38" x2="128.8" y2="84.38"/></g></g></svg>