<svg xmlns="http://www.w3.org/2000/svg" viewBox="0 0 301 551.93"><defs><style>.cls-1{fill:none;stroke:#000;stroke-linecap:square;stroke-linejoin:round;stroke-width:10px;}</style></defs><g id="Calque_2" data-name="Calque 2"><g id="huppe"><path class="cls-1" d="M5.57,539.25c.67-3.11,12.94-36.26,26.7-85.09.53-1.88-17,13.55-8.31-11.19C52.43,362,82.34,254.71,90.6,245.18c16.6-19.17,73.1-66,33.88-110.55,0,0-37.45-10.69-33.88-28.52,0,0-35.66-10.7-29.42-22.29S90.6,88.28,90.6,88.28,39.65,60.9,57.85,56a13.36,13.36,0,0,1,9.53,1.07c9.41,4.81,34.31,17.48,32.13,16-2.67-1.78-39.22-39.22-24.07-41.9L145,78.47s-57-47.25-34.77-47.25c0,0,20.73,4.91,29.09,16.61,0,0-31.43-29.76-23.4-38.11,0,0,3.67-.67,9,5.68,0,0-6.68-12.7,1.67-10S153,30.11,153,30.11s4.35-12.71,16.38-7.69,25.08,36.44,26.08,43.12,6,32.77,6,32.77S208,46.91,220.2,63.2c3,4,5.68,28.42,0,40.12,0,0,4.92-13.13,10.84-7.77a7.6,7.6,0,0,1,1.43,9.35c-4.43,7.95-15.13,25.37-24.64,27.17,0,0,93.6,13.71,87.92,24.74,0,0-82.24-19.39-89.59-3.68,0,0,6.35,17.39-11.37,33.1,0,0,56,81.77-8.85,133.59,0,0,17.54-.87,19.55,9.16l-8.2,2.67s.27,5.22,1.18,18.72c0,0-10-12.64-12.46-16.45,0,0-8.8,3.71-8.94,3.75s-1.44-8.57-1.51-9.6L171.72,330S138,347,137.63,358.73l-2.15,3s10.62,9.71,9.17,14c-2.64,7.82-15.29-5.43-15.29-5.43s6.31,24.76,6.22,24.81-6.22.3-8.69-7.71c0,0-8.6,8.3-8.65,8.05,0,0,2.32-18.33,1.33-22.06l-4.34-7.36s-40.79,75.22-43.8,91.27-18.72,72.88-18.72,72.88-6,23.07-21.73,13.7c0,0-10.36-4.34-8.69-10.36C22.29,533.57,1.3,559.37,5.57,539.25Z"/></g></g></svg>