<svg xmlns="http://www.w3.org/2000/svg" viewBox="0 0 657.21 554.91"><defs><style>.cls-1{fill:none;stroke:#000;stroke-linecap:square;stroke-linejoin:round;stroke-width:10px;}</style></defs><g id="Calque_2" data-name="Calque 2"><g id="ibis"><path class="cls-1" d="M204.73,98.61C370.73-1.17,439.08,128,439.08,128s-64.85-87.93,0-116,73.5,37.47,73.5,37.47C717.22,225.29,636.52,248.35,636.52,248.35,639.4,154.67,480,81.83,482.31,85.5c52.9,85.19,4.47,121.55-10.85,130.37a19.55,19.55,0,0,0-6.32,6c-18.06,26.35-108.4,40.21-137.75,49.19a28.44,28.44,0,0,0-6,3.23,86.45,86.45,0,0,0-38,58.67l-.42,2.57a52.11,52.11,0,0,0,1.85,23.39c1,3.16,1,8.8-1.41,18.78-6.12,25.22,28.11,116.37,28.11,116.37,109.29,35.05,89.71,55.85,89.71,55.85l-64.49-38.55,22.33,23.78-70.61-37.47-43.24,3.6,37.83-11.17-57.64-62.33L184,483.62l-58.37,13.69,53.68-17.66,37.11-66.29c-.76,2.19-85.75-85.75-72.06-112.77.66-1.29,23.78-26.66,23.78-26.66,4.33-16.21-35.31-17.65-52.24-1.08-.93.91-20.9,28.1-67,42.51s3.24-49.36,8.28-52.6c6.66-4.28-37.11,14.77-37.11,14.77-23.41,2.16,2.53-13.33,2.53-13.33l-1-.2C4.66,260.11-.69,238.5,12,226.64c9-8.39,22.12-19.19,36.2-30.3a756.39,756.39,0,0,1,104.48-69.17Z"/><path class="cls-1" d="M200.87,275.19c-1.69-.78-24.88,17.7-8.83,41.77s81.06,143.69,81.33,141.93c.12-.8-3.6-21.05-7.73-43.1a386.38,386.38,0,0,1-5-105.92c1.48-16.23,2.17-30.52.17-31.85C256,274.84,230,288.64,200.87,275.19Z"/></g></g></svg>