<svg xmlns="http://www.w3.org/2000/svg" viewBox="0 0 814.84 554.09"><defs><style>.cls-1{fill:none;stroke:#000;stroke-linecap:square;stroke-linejoin:round;stroke-width:10px;}</style></defs><g id="Calque_2" data-name="Calque 2"><g id="jaguarondi"><path class="cls-1" d="M284.24,43.54s52.12-27.93,106.1-11.17c0,0,30.72-40,39.1-23.27s0,44.68,0,44.68,33.5,64.22,3.72,115.41c0,0,27.92,43.75,95.87,20.48s153.58.93,153.58.93,137.75,30.71,126.58,103.32,7.45,117.27-102.38,185.22c-96.3,59.57-150.26,45.52-166.59,39A24.21,24.21,0,0,0,527,516.87c-27.67,5-122.94,19.75-148.86-7.61a29.94,29.94,0,0,0-32.93-7.44,102.36,102.36,0,0,0-41.47,30.37c-23.65,29.17-213.51,12.94-271.11,7.29C17.84,538,5.9,526.15,5.05,511.27c-.84-14.54,9-30.19,53-33.06,85.63-5.59,147.06,1.86,147.06,1.86s59.24-7.62-43.39-30.92a92.28,92.28,0,0,1-39.84-19.81c-15.92-13.71-26.12-31.72,22.74-35.91a125.92,125.92,0,0,1,29.8,1l30.69,4.67,13-14s-55.85,8.38-27.92-72.6c0,0,11.76-29,39.87-32.07a22.88,22.88,0,0,0,17.47-11.78c3.86-7,9-15.29,13.87-20.11a12.2,12.2,0,0,0,2.69-13.34c-8.71-21-25.55-73.81.56-120.95,0,0-35.37-79.12-13-93.08Z"/></g></g></svg>