<svg xmlns="http://www.w3.org/2000/svg" viewBox="0 0 593.1 545.01"><defs><style>.cls-1{fill:none;stroke:#000;stroke-linecap:square;stroke-linejoin:round;stroke-width:10px;}</style></defs><g id="Calque_2" data-name="Calque 2"><g id="Calque_21" data-name="Calque 21"><path class="cls-1" d="M427.84,414.89c-25.81,6.54,21.05,56.84,21.05,56.84s44.21-15.79,61.05,23.15c0,0-51.35-25.46-103.15,16.84L383.64,540s8.42-43,10.52-53.55c2.41-12-44.2,2.11-44.2,2.11l-25.26,6.84L391,471.73l6.31-56.84-85.25,8.95-14.73,30.52s33.68,10.52,58.94,17.37l-91,7.36-34.73,37.37L230,467s-81.57,5.79-80,5.26-25.78-20.52,101-20l27.36-34.73S200.18,430,172.22,411.73c-30.65-20-77,9.48-79.06,13.16S5.8,536.45,5.8,534.87-5.77,501.19,59,418.05c0,0-24.73-93.14,19-185.23,0,0,13.24-34.36,50.94-58.81a152.8,152.8,0,0,0,45.82-46.53C204.82,79.89,271.46-2,369.43,5.48c54.74,4.2,100.19,26.78,135.08,52.42,77.45,57,105.71,160.39,65.07,247.51C548,351.78,506.17,395.07,427.84,414.89Z"/></g></g></svg>