<svg xmlns="http://www.w3.org/2000/svg" viewBox="0 0 467.88 549.31"><defs><style>.cls-1{fill:none;stroke:#000;stroke-linecap:square;stroke-linejoin:round;stroke-width:10px;}</style></defs><g id="Calque_2" data-name="Calque 2"><g id="linottes"><path class="cls-1" d="M433.86,125.09S546.05,285.82,329.23,404.48c0,0,3.84,7.92,23.73,37.75,9.17,13.76,30.8,44.3,42.62,60.94a19.06,19.06,0,0,1-.89,23.23c-12.33,14.84-31.65,23.36-47.12,14,0,0,35.64-.59,35.64-34,0,0-22.7,4.18-29.17,13.53,0,0-7.55-14,17.26-30.2,0,0-56.09-53.94-68-76.59,0,0-42.07,24.81-97.08,11.86L80.64,521.87A11.45,11.45,0,0,1,64,519.11c-4.49-7.08-7.44-19.87-.13-42.36,0,0-65.81,23.37-58.27,16.54,23.83-21.6,101.12-70.65,134.24-91.29A233.18,233.18,0,0,0,174,376c12.79-11.72,27.63-26.23,25.75-28.73C196.55,343,91.91,379.67,99.46,367.8c4.24-6.65,30.5-23.81,52.76-37.6A122.15,122.15,0,0,0,196.64,282c11.16-21.82,32.73-59.23,74.44-122.16a172.89,172.89,0,0,0,23.47-53.34C303.73,70,327,7.8,379.07,5.08a66.05,66.05,0,0,1,33,7.11c13.49,6.78,29.84,20,19.65,41.71L450,63.61,431.71,75.47S478.81,159.25,433.86,125.09Z"/></g></g></svg>