<svg xmlns="http://www.w3.org/2000/svg" viewBox="0 0 238.64 161.64"><defs><style>.cls-1,.cls-2{fill:#393232;}.cls-2{font-size:18px;stroke:#1d1d1b;stroke-miterlimit:10;stroke-width:0.25px;font-family:EssonnesHeadline-Regular, Essonnes;}.cls-3{letter-spacing:-0.04em;}.cls-4{letter-spacing:-0.03em;}</style></defs><g id="Calque_2" data-name="Calque 2"><g id="Calque_21" data-name="Calque 21"><path class="cls-1" d="M191.05,81.9s-10.6-4.7-36.73,5.66a3,3,0,0,1-3.59-1.11c-3.27-5-6.36-19.65-13.62-19.65-5.41-1-16,3.12-23.87,6.76A1.64,1.64,0,0,1,111.32,71a2.37,2.37,0,0,0-.31-3.19,2.2,2.2,0,0,0-3.18.3C92.55,84.71,90,91.07,88.74,93.07c-.83,1.29-1.89,2.63-2.23,3.21-28.19,48.84-53.83,63.31-67.25,56.42C-2.58,141.5,11,91.84,33.78,74.3a1.88,1.88,0,0,1,1.92-.23,11.81,11.81,0,0,0,7.13.91c3.79-.65,7.1-4.58,7-7.22-.13-3.15-4.06-3.26-8-1.54a1.26,1.26,0,0,1-1.51-.36C23.12,42.88,65.4-1.57,79.54,2.55,91,5.84,81.44,29,71.41,36.7a1.24,1.24,0,0,1-2-.8c-.28-2.44-1.58-2.86-2.93-2.28-5.13,2.42-4.27,8.62-1.4,8.65C78.84,43,96.15,5,81.17.5,62.31-5.31,17.3,41,31.78,70.24a1.2,1.2,0,0,1-.33,1.51C10.65,87.94-11.09,129.7,6.39,154.18c15.7,22,54.35-7.24,81.56-54.79,2.67-4.68,5.83-9,10.27-12.11l0,0c8.14-5.71,25-14.42,36.7-16.45a2.57,2.57,0,0,1,2.83,1.62c2.42,6.41,11.26,26.15,24.62,15,13.09-10.87,28-3.77,32.27-2A27.12,27.12,0,0,0,199.84,87c9.75,1.91,35.89,4.85,38.8-17.94C238.64,69.07,233.52,99.06,191.05,81.9Z"/><text class="cls-2" transform="translate(99.83 119)">E<tspan class="cls-3" x="11.48" y="0">D</tspan><tspan x="23.71" y="0">WI</tspan><tspan class="cls-4" x="48.35" y="0">N</tspan><tspan x="60.53" y="0">A RABOT</tspan></text></g></g></svg>