<svg xmlns="http://www.w3.org/2000/svg" viewBox="0 0 593.14 550.74"><defs><style>.cls-1{fill:none;stroke:#000;stroke-linecap:square;stroke-linejoin:round;stroke-width:10px;}</style></defs><g id="Calque_2" data-name="Calque 2"><g id="mara"><path class="cls-1" d="M194.16,131.49a89.36,89.36,0,0,0,69.9,38.41c83.63,3.33,257.88,23.44,303.83,124.72C619,407.23,560.6,460.84,533,478.75a22.14,22.14,0,0,0-10.16,20c.94,13.43-3.86,33.05-38.38,36.84-42.35,4.64-108.85,5.6-134.63,5.8a42.12,42.12,0,0,1-25.57-8.23c-10.09-7.54-16.07-18.69,18.6-26.64l14.41,1.54a392.77,392.77,0,0,0,76.28.71l25.59-2.25s0-28.14-22.5-50.64c0,0-109.5,1.87-163.06-83.46l-28.24,169s-66.58,9.61-61,0S208.73,530,208.73,530s16.22-8.74,21.57-32.82c1.88-8.44,4.69-124.72,4.69-124.72s-16.88,0-26.26,62.83-24.71,91-24.71,91,16.27,15.23-29.68,15.23-18.75-17.11-18.75-17.11,31.88,6.57,34.7-11.25S196.54,364,196.54,364s-116.28-20.63-94.71-126.6c0,0,39.39-38.44-30.94-19.69-13.51,3.6-24.39,4.51-33.15,3.62C12,218.72-2.8,190.79,9.26,167.91q2-3.79,4.42-8.53c3.41-6.68,21.21-32.64,34.75-52.12A128.13,128.13,0,0,1,87.77,70.5h0s-29.51-37.81,7.49-65a2.67,2.67,0,0,1,2.33-.44c4.31,1.19,17.9,8.29,29.56,50.39,0,0,29.07-60.95,45-37.51l-.1.55a64.49,64.49,0,0,0,3.52,35c4,10.25,7.56,24.07,4.12,35.8a28.14,28.14,0,0,0,2.75,22.1Z"/></g></g></svg>