<svg xmlns="http://www.w3.org/2000/svg" viewBox="0 0 1130.96 541.53"><defs><style>.cls-1{fill:none;stroke:#000;stroke-linecap:square;stroke-linejoin:round;stroke-width:10px;}</style></defs><g id="Calque_2" data-name="Calque 2"><g id="numbat"><path class="cls-1" d="M1019.58,174.43c14.42-10,32.26-14.08,49.39-10.41,61.77,13.2,56.9,113.73,56.9,113.73-30.36,266.78-409.94,71.57-409.94,71.57l-43.38,52.06c-56.4,138.82-141,117.13-141,117.13C447,520,501.94,499.79,541.1,487.86a75.84,75.84,0,0,0,44.69-36.59h0S551.36,491.12,449.14,499c-28.2,2.17-40.37-14.79-25.57-29.44,13.53-13.38,19.12-14.84,38.13-14,90.07,4,67.69-52,67.69-52s-19.52-80.26-99.77-94.15-56.39,52.94-56.39,52.94l47.71,138.81c-10.84,52.06-49.88,32.54-60.73,28.2S381.9,486,381.9,486l-32.53-43.38-8.68,58.56s-60.73,21.69-78.08,0,39-19.52,39-19.52l1.57-89.52a78.16,78.16,0,0,0-24-57.74L141.14,201.83c-63.56,41.5-99.72,45.49-120.07,38.74-17.52-5.8-21.69-28.76-7.65-40.74L143.31,89S136.8,30.48,154.16,11s19.52,15.18,19.52,15.18c21.69-4.34,36.87,59.44,36.87,59.44S227.9,76,247.42,102.06c7.64,10.17,19.25,14.71,30.57,16.47a72.1,72.1,0,0,0,39.27-5.18C395.31,80,518.55,86.87,518.55,86.87,660.93,84,707,163.78,721.85,216.8a89.16,89.16,0,0,0,68.49,63.59l1.78.35a349.53,349.53,0,0,0,105.68,4.12c23.24-2.62,51-5.56,69.77-10.31,17.91-4.53,41.81-17.4,31.9-58.05a36.58,36.58,0,0,1,19.71-41.88Z"/></g></g></svg>