<svg xmlns="http://www.w3.org/2000/svg" viewBox="0 0 1004.8 545.5"><defs><style>.cls-1{fill:none;stroke:#000;stroke-linecap:round;stroke-linejoin:round;stroke-width:10px;}</style></defs><g id="Calque_2" data-name="Calque 2"><g id="olingo"><path class="cls-1" d="M5.5,119.32C10.89,96,48.11,108.69,48.11,108.69,94.5,66.28,162.82,78.87,162.82,78.87h0C164.64,69,180.35,53.52,187.63,46a21,21,0,0,1,19.47-6.21c25.14,5.65,8.37,49.95,8.37,49.95h0c0,1.8,1.77,2.91,3.71,2.52,9.73-2,21.8-13,37-20.24a325.25,325.25,0,0,0,39-22c37-24.25,172.86-97.34,324.1,18.91C720.85,147,790.76,175.62,832,185.86a123.17,123.17,0,0,0,69.58-3.16h0a118.37,118.37,0,0,1,53.48-5.64c58.72,7.52,50.18,49.11,27.51,68.6-11.46,9.86-23.3,19-33.9,26.58s-21.78,18-32.67,29.49a305.86,305.86,0,0,0-71.48,124.83c-18,61.29-62.39,151-162.5,97.68-145.62-77.6,97.47-259.83,97.47-259.83-72.34-10.2-169-127.72-169-127.72,9.62,19.53,4.23,39.46-3.31,48.46a10.24,10.24,0,0,0,1.32,14.45c17.1,14.21,53.78,46.32,58,63.54,5.45,22.54-26.13,57.83-40.89,66.4-12.61,7.33-30.53,12-39.32,14a32.67,32.67,0,0,0-8.14,3c-3.12,1.64-8.17,3.26-12-.61-5.54-5.58-8.75,5.81-9.17,5.95l-.58-6.62c-2.71-4.89-9.15,3.34-9.12,1.81,0-.72,1.1-5.54.57-6-7.32-6.59-8.46,4.14-8.46,4.14-3.86-7,1-11.11,3.77-12.77a8.55,8.55,0,0,0,2.67-2.48c7-10.09,22.53-8.27,31.64-6.12a22.29,22.29,0,0,0,26-13.35,37.43,37.43,0,0,0,2.09-16.32C576.75,297.57,511.34,248,511.34,248l.16,22.27A33,33,0,0,1,495.19,299l-.45.26c-15.12,8.67-78.05,3.72-84.13,2.56s-7.68,3.91-7.68,3.91a16,16,0,0,0-6.9-7.31,31.16,31.16,0,0,0-5.41-2.39,8.56,8.56,0,0,0-7.09.72c-.87-1.45,3-6.51,3-6.51-4.49-3-9.41,1.15-9.41,1.15a11.07,11.07,0,0,1,5.48-5c8.71-3.65,30.7-11.59,42.47-4.3,14.9,9.22,30.09,0,30.09,0-12.31-7.29-32-65.82-39.76-90.32a9.44,9.44,0,0,0-13.35-5.53l-33.83,17.52a8.52,8.52,0,0,0-4.29,9.79c2.73,10.21,6.63,31.67,1.26,58.84-7.57,38.36-34.57,37.41-34.57,37.41l.48-9.47-8.05,4.74V298.5c-16.41,41-79.8,46.8-106,47.4A85.48,85.48,0,0,0,196.37,349c-3.14.87-6.34,1.48-8.24,1.1-4.73-.94-4.26,7.11-4.26,7.11-1.48-.75-1.88-3.44-1.81-6.45a6.17,6.17,0,0,0-10.73-4.24l-.25.27c-8.05,9-12.78,1.42-12.78,1.42-7.58-8.05-10.89,5.68-10.89,5.68l0-.42a17.85,17.85,0,0,0-5.18-11.42c-4.74-4.73-10.42,7.11-10.42,7.11A27.37,27.37,0,0,1,139,332c18.09-19.29,38.24-13.54,44.77-10.93a8.69,8.69,0,0,0,4.78.52,3.58,3.58,0,0,0,.7-.17c51.33-20.27,34.56-93.61-20.53-90.44a150,150,0,0,0-43.5,9.66c-27.87,10.54-58.71-6.41-64.08-35.72-.16-.89-.28-1.67-.37-2.34a7.69,7.69,0,0,0-2.13-4.29c-17.89-18.48-14.23-44.53-14.23-44.53-14.78,3-23.69-7.28-31.7-14A20.74,20.74,0,0,1,5.5,119.32Z"/></g></g></svg>