<svg xmlns="http://www.w3.org/2000/svg" viewBox="0 0 942.15 556.17"><defs><style>.cls-1{fill:none;stroke:#000;stroke-miterlimit:6;stroke-width:10px;}</style></defs><g id="Calque_2" data-name="Calque 2"><g id="pekan"><path class="cls-1" d="M833.14,549.47S1053.4,422.21,852.87,190c-8.46-9.81-17.94-18.7-26.22-28.66-21.16-25.47-59.09-71.49-70.33-87.65-21.57-31-93-57.95-93-57.95s-142.87-51.22-283,70.08c0,0-99.74,70.09-183.3,21.57-49.11-28.52-99.15-12.81-132.07,5a72.51,72.51,0,0,0-38.07,62.28c-1,48.48-10.88,125.24-19.9,143-4.4,8.66-1.8,14.61,12.8,19.05a69.61,69.61,0,0,0,61-10.31C109.58,305.5,161,276.56,204,296.48c19.87,9.22,39.94,18,60.6,25.33h0A29.75,29.75,0,0,1,282,361.56c-6.59,15.35-23.15,33.62-61.58,49.3-9.09,3.71-12.17,15.42-5.59,22.69,6.4,7.08,22.53,11.59,54.92-9.43,23.75-15.41,39.17-26.87,49.08-35a97.63,97.63,0,0,0,21.28-24.59c7-11.47,22.54-28.72,45.55-10.51,18.21,14.42,5.25,42.49-9.56,64.28A141.68,141.68,0,0,1,335,457.76c-15.94,10.2-32.84,26.12-.06,34.16,33.92,8.33,69.41-5.11,90.13-33.23,19.44-26.39,43.7-54.06,38.81-112.74-6.74-80.87,62-68.72,62-68.72S649.84,315,593.24,381L538.1,401.9c-15.51,5.89-12.92,28.58,3.51,30.81,19.39,2.64,52.92-2.65,110.93-28.81,96.66-43.59,96-79.19,87.15-96.48-5.74-11.17-4.47-24.73,3.89-34.1s20.66-14.47,35.65,3.91c19,23.29,37.43,52.12,48.23,69.84a80.35,80.35,0,0,1,11.4,34.33h0A166.16,166.16,0,0,1,829,454.82C813.32,497,794.18,562.61,833.14,549.47Z"/></g></g></svg>