<svg xmlns="http://www.w3.org/2000/svg" viewBox="0 0 703.89 546.63"><defs><style>.cls-1{fill:none;stroke:#000;stroke-linecap:round;stroke-miterlimit:6;stroke-width:10px;}</style></defs><g id="Calque_2" data-name="Calque 2"><g id="quokka"><path class="cls-1" d="M42.41,180.05s44.44-14.81,58.32,0,17.59,90.74,47.21,96.28c0,0-6,117.59,44.64,96.86l-10.48-1.95,12.64-3.51-9.62-4.64h0l12-1.78L186,355.47h0l8-3-7-5.22h0l13.66-4.58-10.81-6.48h0L201.69,335s-16.53-10.31-10.81-23.23c2.86-6.46,8.45-4.5,13.32-.93a34.82,34.82,0,0,1,11.56,15C225.37,349.41,260,432,277.33,441.69V449s-19.26.33-18.93,15.61c0,0-36.08-9.38-52,7.08a72.24,72.24,0,0,1-12.11,10.25l-4.95,3.25H206.6l-11.29,10.3,37.19-3,44.83,3s56.46,12.29,57.78-2.66l-12.19-57.45,24.15,6.31L345.41,447,325,445.39l6.31,29.7,56.76.44s8.12-1,5-12.66.71-18.39.71-18.39,49.68-5.49,53-17.19c0,0,30.29,90.65,114,100.17,7,.8,13.95,2,20.84,3.48,30.9,6.55,108.57,20.72,116.18-.7,0,0-42.68-27.17-87.48-32.46C578.48,494,549.64,469.72,535.65,456a38.49,38.49,0,0,1-11.73-29,25.65,25.65,0,0,1,1-6.39A54,54,0,0,0,527.23,410c3.58-35.39-22-165-67.55-236.58-20.75-32.62-148.37-108.41-265.53-61.69L149.49,57.55s11-25.88-8.6-47.14a7.93,7.93,0,0,0-10.2-1.23l-13,13.06s-8.1-25.6-20.73-14.41a16.93,16.93,0,0,0-5.63,12.71v31S36,90.37,22.84,126.37a28.16,28.16,0,0,1-6.18,9.92C9.2,144-3.47,160.89,13.24,173.07l1.1.81C16.64,175.61,28.38,183.71,42.41,180.05Z"/></g></g></svg>