<svg xmlns="http://www.w3.org/2000/svg" viewBox="0 0 920.11 551.92"><defs><style>.cls-1{fill:none;stroke:#000;stroke-linecap:round;stroke-linejoin:round;stroke-width:10px;}</style></defs><g id="Calque_2" data-name="Calque 2"><g id="roitelet"><path class="cls-1" d="M340,546.92s-101.75-67.48-10.71-111.39l83.54-65.33S216,373.11,172,266.41a160.71,160.71,0,0,0-26.49-42.8c-15.9-18.64-38.37-41.47-56.88-55.91A79.15,79.15,0,0,0,52.06,152h0c-8.54-1.88-23.81-2.74-46.77,4.8,0,0-8.32-31.6,64.82-32.79,0,0-25.89-116.89,175.66-118.91,155.29-1.56,295.37,32.5,351.49,48.22a125.86,125.86,0,0,0,53.84,3.08c65.94-10.58,228.74-34.14,264-14.9L716.93,88.64l-18.87,21.57L781,131.1l-47.18,8.09s68.08,35.05,59.31,39.1-122.68-18.88-122.68-18.88-20.71,85.16-78,97.91c-8.27,1.84-14.47,9-14.37,17.48,0,.38,0,.76,0,1.16,1.25,21.61,9.43,143.64,9.43,143.64S605,443.19,590.21,452c0,0,24.27,12.81-12.13,68.76,0,0,12.13-62.69-4.72-66.73l-28.9,37.82,20.14-47.94,12.13-41.79L565.27,287.48s-7.41,64.71-123.35,76.17l-76.85,67.41s30.51,78.86-1.34,94.37c0,0,3.37-78.19-23.6-74.15C340.13,451.28,299.42,457.53,340,546.92Z"/></g></g></svg>