<svg xmlns="http://www.w3.org/2000/svg" viewBox="0 0 510.47 556.93"><defs><style>.cls-1{fill:none;stroke:#000;stroke-miterlimit:6;stroke-width:10px;}</style></defs><g id="Calque_2" data-name="Calque 2"><g id="siamong"><path class="cls-1" d="M431.73,305.7c-16.11,8.57-36.15,2.19-43.74-14.4a64.12,64.12,0,0,1-5.46-23.92c-2-42.14-44.11-123.12-44.11-123.12s-19.75-27.66-52-21.07c0,0,13.09-60.42-21.59-40.58,0,0-23.06-34.8-55-25.09,0,0-21.86-14.57-48.16,12.54,0,0-3.24-1.21-3.24-11.33s6.88-14.16-5.66-23.06a42.16,42.16,0,0,1-15.79-21.86s-.81-19.83-32,0S51.55,49.43,51.55,49.43,39.82,63.59,39,79s-24.28,76.48-24.28,76.48S-14.91,328.42,29.28,336s107.23-44.73,107.23-44.73L157,330s-3.57,6.82-8.11,18c-31,76.59-5.5,148.41,68.68,184.82,21.13,10.36,34.45,25.5,57.8,16.1,0,0,29.4-19.5,34-41.14,4.48-21.25,24.28-5.45,24.28-5.45s41.31,44.64,81.5,40c8.79-1,15.43-10.54,19.17-17.53,4.37-8.16,9-16.2,13.91-24l3-4.81c23.31-28.75,72-91.11,47.61-159.71a52.63,52.63,0,0,0-40.42-34.45C450,300.39,440.7,300.93,431.73,305.7Z"/><path class="cls-1" d="M143.79,103.17s-4.67,11.93-8.65-.87l5.36-15.56-14.59,15.82a2.26,2.26,0,0,1-3.77-.7c-1-2.6-.85-7.11,5.91-13.56,0,0,10.07-23.35,4.69-25.6l-6.42,16.78S109.2,93.14,108,87.26,117.33,76,117.33,76l7.43-16.78s1.21-9-11.58-3.28c-5.42,2.42-11.53,4.8-16.77,6.75A27.36,27.36,0,0,0,79.55,81.13c-6.51,23.78-16.9,73.24-3.47,110.4,0,0,28.79-60.53,66.09-66.75Z"/></g></g></svg>