<svg xmlns="http://www.w3.org/2000/svg" viewBox="0 0 1270.32 444.42"><defs><style>.cls-1{fill:none;stroke:#000;stroke-linejoin:round;stroke-width:10px;}</style></defs><g id="Calque_2" data-name="Calque 2"><g id="tamandua"><path class="cls-1" d="M166.13,430.08c14.73,4.62,38.32,5.79,56.05-12.6,61.2-63.5,73.11-154.65,73.11-154.65C357.15,253,407,331.77,407,331.77c-40.59,14.5-67.05,36-60.25,55.4a60.71,60.71,0,0,0,64.43,39.9c86.2-10.54,114.73-178.3,114.73-178.3,38-1.41,49.21,84.35,49.21,84.35-48.73,27.16-55.62,58.68-55.31,75.32a20.37,20.37,0,0,0,12.41,18.38c46.68,20,97.73-67,97.73-67-.76,41.5-2.69,58.62,11.47,72a27.12,27.12,0,0,0,28.48,5.74c35.37-14,29.27-74.17,26.47-103.18a102.1,102.1,0,0,1,17.59-67.34l30-43.87,142.4,56.4a496.14,496.14,0,0,0,196.42,35c204-5.71,181.86-128.43,181.86-128.43C1188.77,350.07,1045.27,254,1045.27,254,913.92,186.18,779.43,88.16,667.46,40.33,529.82-18.47,371.35-3.35,248.23,81.76c-5.14,3.55-9.8,6.94-14,10.08a591.58,591.58,0,0,1-75.37,48.5l-44.55,24-27.13-21,8.62,41s-21.48,16-70.69,90.55c-31,46.89-20.28,49.95-7.18,52.8a24.19,24.19,0,0,0,21.43-5.75C80,285,187.08,254.93,187.08,254.93s-.74,78.19-28.72,110.76C158.36,365.69,74.67,401.34,166.13,430.08Z"/></g></g></svg>