<svg xmlns="http://www.w3.org/2000/svg" viewBox="0 0 680.73 544.55"><defs><style>.cls-1{fill:none;stroke:#000;stroke-miterlimit:6;stroke-width:10px;}</style></defs><g id="Calque_2" data-name="Calque 2"><g id="unuau"><path class="cls-1" d="M207.56,336.47s-67.84-78.6,13.24-132.38c0,0,29.79-20.69,88.53,18.2,0,0,34.94-213.76,77.14-217.18s31.94,77.56,31.94,77.56L395.84,241.72c-3,20.88,6.44,41.86,24.49,52.79l1.37.8c21.11,11.93,47.77,6.68,63.51-11.76,25.8-30.23,88.05-96.3,137.38-93.65,39.93,2.13,43.76,33.68,41,57-.46,3.93-1.11,7.63-1.8,10.92a3.56,3.56,0,0,1-6.93.16c-5.34-21.08-23.16-40.86-41.33-18.55-17.44,21.4-30,57.62-36,77.74a7.6,7.6,0,0,0,9.95,9.29l12.33-4.65a101.46,101.46,0,0,0,52.38-44.35c15.54-27.19,54.93-6.74-25,213.54a70.25,70.25,0,0,1-53,45.1c-51,9.56-147.91,5.3-285.8-97,0,0-98.14,32-157.11,18.31-4.56-1.06-30.84-6.58-35.3-8-29.23-9.21-106.48-20.09-88.19-60.52,0,0,4.11-20.06,107.52-32.7,10.86-1.33,21.88-.14,32.42-3.08Z"/></g></g></svg>