<svg xmlns="http://www.w3.org/2000/svg" viewBox="0 0 1152.18 548.65"><defs><style>.cls-1{fill:none;stroke:#000;stroke-linejoin:round;stroke-width:10px;}</style></defs><g id="Calque_2" data-name="Calque 2"><g id="vaquita"><path class="cls-1" d="M184.73,400.75s-62-120.38-61.54-152.95c1-65.13-36-108-36-108-25.71-26.47-62-69-78.65-95.14A22.68,22.68,0,0,1,20.23,11.05C108.76-20.2,379.52,78.21,466.14,111.42a78.26,78.26,0,0,0,54,.75C659.29,63.25,660.46,89,660.46,89s-55.35,67.21-50.08,68.53a8.92,8.92,0,0,1,2.76,1.62c32,24.46,65.83,46.29,102.14,63.64l31.61,15.11a562.12,562.12,0,0,0,63.18,25.64c46.24,15.56,114,53.67,157.79,79.73a423.91,423.91,0,0,0,88.35,39.66c102.74,32.63,90.51,50,90.51,50l-11.69-5a49.05,49.05,0,0,0-47.61,5h0c-25.92,34.31-35.58,110.69-35.58,110.69-30-9.69-48-80-55.35-116.49a28.58,28.58,0,0,0-26.81-22.85l-162.95-6.94C476,426.37,245.35,264.28,205.82,243.19c-14.83-7.9-18.53-5.62-17.38.33,5.43,27.84,6.44,56.34.68,84.12C184.69,349,181.84,374.72,184.73,400.75Z"/></g></g></svg>