<svg xmlns="http://www.w3.org/2000/svg" viewBox="0 0 501.69 545.02"><defs><style>.cls-1,.cls-2{fill:none;stroke:#000;stroke-linecap:round;stroke-width:10px;}.cls-1{stroke-miterlimit:5;}.cls-2{stroke-miterlimit:6;}</style></defs><g id="Calque_2" data-name="Calque 2"><g id="watussi"><path class="cls-1" d="M391,0" transform="translate(0 -137.06)"/><path class="cls-2" d="M146.57,345c-3.95-.94-22.27-9.41-25.34-12.06L58.5,278.79c-22.22-19.17-36.76-46-39.77-75.15a96.86,96.86,0,0,1,1.49-30.52S7,164.53,5,218s103,144,103,144-21.14,21.14-3.3,44.92L81.15,453.84S81,471,95.52,467.72c0,0,15.19,21.13,39-6a48.48,48.48,0,0,0,12.71,13.55A44.93,44.93,0,0,1,161.49,492c8.89,18,28.38,50.32,54.25,51l4.62,22.46s-7.26,11.22,5.29,32.36L225,634.17s-10.57,4.63-10.57,12.55l-2.82,5.9a8.56,8.56,0,0,0,5.9,12.07c9,1.95,20.93,3.25,23.34-2.78,0,0,6.61-7.26,4-14.53l6,.66s-6.71-65.39-.43-83.22c0,0,14.21,3.3,31.38-37.66l18.5,39.64s-6.61,14.53,7.93,38.31c0,0,5.94,32.36-8.59,44.25-5.25,4.3-6.62,9-6.23,13.31.8,8.81,8.92,15,17.75,14.36,9.87-.74,22.74-5.52,21.51-25.68l5.32,1.77a1.59,1.59,0,0,0,2.07-1.82l-12.68-64.69s7.93-8.58-3.3-29.72l.66-33.69,51.52-21.14S403.33,549,400,587.93c0,0-25.37,19.63-17.17,27.75,14.83,14.7,34.27-11.53,35.37-22.67l-4.88-55a248,248,0,0,0-4.94-31.94l-1.65-7.42s1.12,1,7.28,19.66A142.72,142.72,0,0,1,416.37,600h0a96.45,96.45,0,0,1-11.9,27.14c-4.29,6.67-8.06,15.25-3.28,20,8.58,8.59,30.66,0,30.66,0l3.67-20.23h0a3.25,3.25,0,0,0,5.34-2.68l-1.16-18.55s-4.44-76.29,3.66-79h0s34.14,58.47,53.32,58.47c0,0,.54-19.17-5.95-24.84,0,0,11.89,7.56-3.78-8.1s-26.46-21.61-27-38.35c-.34-10.44-1.3-26.65-2-37.38a86.42,86.42,0,0,1,1.12-20.38c2.13-12.19,4.89-33.43,1.3-46.35l-.15-.54a87.2,87.2,0,0,0-68.77-62.69A103.62,103.62,0,0,0,373.69,345c-29.59,0-53.46,3.07-73.48,5.2-15.57,1.66-30.44,3.13-46,4.65-13.55,1.31-24,1.69-49.45,4l-10.59.78s31.43-16.46,37.69-28c1.59-2.92,3.1-5.87,4.71-8.77,4.51-8.15,9.92-27.48-5-65.15-18.44-46.69-25.32-96.9-26.77-108.93a8,8,0,0,0-3.71-6c-3.12-1.9-7.24-1-7,17.14.45,29.07,1.11,73.32,15.64,118.24S146.57,345,146.57,345" transform="translate(0 -137.06)"/></g></g></svg>