<svg xmlns="http://www.w3.org/2000/svg" viewBox="0 0 926.87 549.28"><defs><style>.cls-1{fill:none;stroke:#000;stroke-miterlimit:5;stroke-width:10px;}</style></defs><g id="Calque_2" data-name="Calque 2"><g id="Calque_49" data-name="Calque 49"><path class="cls-1" d="M403.25,429.72S606,474.93,614.74,496.81c0,0-87.42-7.12-123.09,10.05-6.93,3.33-4.79,13.74,2.9,14.11l131.85,6.47s68.55,0,93.35-8.76,87.51-71.46,72.92-153.14c0,0,167.5-53.24,121.06-236.28C868.49-49.08,536.7,17,536.7,17S63.42,113.22,169.89,194.89c65.91,50.56,174.29,22.32,247.31-6.54,80.92-32,169.59-40.09,254.6-21.53,81.86,17.86,149.32,57.24,91.7,143.3,0,0-82.53-218.24-388.73-72.43a88.62,88.62,0,0,1-42.19,8.63c-43.18-2-135.7-5.81-162.69-3.3C107.17,248.86,8,308.66,5.08,349.5,4,364.81,15,377.25,29.17,386.83,54.9,404.18,87.29,408.53,117,399.7c39-11.58,106.23-25,157.87-.61,0,0,49.59,8.75,11.67,113.76,0,0-34,0-55.87,12.93-9.09,5.38-4.35,19.43,6.17,18.45l103.9-9.68a59.08,59.08,0,0,0,52.72-48.71Z"/></g></g></svg>