<svg xmlns="http://www.w3.org/2000/svg" viewBox="0 0 689.18 546.12"><defs><style>.cls-1{fill:none;stroke:#000;stroke-miterlimit:5;stroke-width:10px;}</style></defs><g id="Calque_2" data-name="Calque 2"><g id="Calque_51" data-name="Calque 51"><path class="cls-1" d="M134,212c32.08,32.08,81.66,67.08,81.66,67.08l23.33,159-11.66,93.32c18.95,13.13,48.12-13.12,48.12-13.12l12.7-49.06a206.3,206.3,0,0,0,6.28-63.42c-2.59-45.89-4.63-127.91,13.1-138.34,24.79-14.58,118.12,16,118.12,16l55.41,83.12-23.33,150.2s-29.17,39.37,27.7,17.91,67.08-192.9,67.08-192.9c35,16,80.21,167.7,80.21,167.7,8.29,22.33,19.93,26.79,30.41,24.75,15.17-2.95,24.22-18.75,20-33.62L622.52,286.41C692.51,23.7,521.9,45.8,521.9,45.8L384.83,34.13S253,8.29,212.75,21c0,0-40.2,0-42.17,13.73l11.77,15.69s8.83-31.38,40.21-15.69c0,0-9.81,47.07-35.3,50,0,0-3.93,111.79-57.86,117.67Z"/><path class="cls-1" d="M129.4,202.46C72.14,216.33,62.62,76.9,62.62,76.9,6.43,80.33,5.06,33,5.06,33c23.3-23.29,62.36,7.54,62.36,7.54s48-76,103.16-5.81"/></g></g></svg>