<svg xmlns="http://www.w3.org/2000/svg" viewBox="0 0 651.91 256.05"><defs><style>.cls-1{fill:none;stroke:#000;stroke-miterlimit:5;stroke-width:10px;}</style></defs><g id="Calque_2" data-name="Calque 2"><g id="Calque_53" data-name="Calque 53"><path class="cls-1" d="M419.34,181.66c9-15.46,20.57-32.47,28.78-34.52a2.12,2.12,0,0,1,2.16.78c8.79,11.39,93.28,116,165.1,23.45,46.54-60,32.58-111.2,14.84-141.85-18-31.13-65.55-21.91-70.37,13.73q-.71,5.18-1,11.12c-3.86,69.43-33.43,59.14-33.43,59.14s-46.6-5.74-82.28-78.43c-31.12-63.4-214.48-7.2-221-5.19a1.35,1.35,0,0,0-.35.14l-13,6.86a52.73,52.73,0,0,1-23,6c-16.64.49-46.66,2.61-61.62,11.37a31.66,31.66,0,0,1-18,4.12c-14.31-.89-38.67-.88-55.42,7.32a2.15,2.15,0,0,1-2.25-.21c-1.68-1.26-5.21-3.29-8.67-1.36C35.67,66.42,33.91,78,33.49,81.34a2.17,2.17,0,0,1-.79,1.39c-3,2.46-14.89,14-14.21,42.21a2.1,2.1,0,0,1-.48,1.41c-3.84,4.58-27.52,34.3.45,38.71,0,0,38.29,11.15,87.69-6.91,0,0,18-8,17,21.25-1,26.08-10.36,24.22-12.37,23.52a2.31,2.31,0,0,0-.82-.13c-4.87.32-47.79,3.64-28.23,20.69s60.77,5.59,65,4.35a2,2,0,0,0,.65-.32c3.15-2.38,30.64-23.72,27.32-43.67a2.13,2.13,0,0,1,1.93-2.51l36.55-2.93a2.07,2.07,0,0,1,1.5.46c3.17,2.54,15.84,14.4,5.31,33.86a2.15,2.15,0,0,1-2,1.1c-1-.06-2.46-.13-4.26-.14-16-.12-16.65,23.77-.67,24.63l30,1.62a1.7,1.7,0,0,0,.39,0c3-.41,40.36-6.76,40.19-68.55a2.13,2.13,0,0,1,2-2.16l39-2a2.13,2.13,0,0,1,2,1.17c2,3.88,8.39,16.09,15.23,24s1.7,20.26-8.68,21.33a51,51,0,0,1-16.66-1.46c-28.27-6.6-28.53,22.76-28.23,29.46a2.13,2.13,0,0,0,1.31,1.87c7.74,3.19,50.54,18.94,83.75-8.5l4.51-3.85A194,194,0,0,0,419.34,181.66Z"/></g></g></svg>